<?xml version="1.0" encoding="utf-8"?>
<!-- Generator: Adobe Illustrator 16.0.0, SVG Export Plug-In . SVG Version: 6.00 Build 0)  -->
<!DOCTYPE svg PUBLIC "-//W3C//DTD SVG 1.1//EN" "http://www.w3.org/Graphics/SVG/1.1/DTD/svg11.dtd">
<svg version="1.1" id="图层_1" xmlns="http://www.w3.org/2000/svg" xmlns:xlink="http://www.w3.org/1999/xlink" x="0px" y="0px"
	 width="841.891px" height="595.281px" viewBox="0 0 841.891 595.281" enable-background="new 0 0 841.891 595.281"
	 xml:space="preserve">
<g>
	<path fill="#FFFFFF" d="M202.656,591.174c-18.335,0-36.67-7.322-51.373-22.025c-29.348-29.348-29.348-77.029,0-106.377
		L584.23,29.824c29.348-29.348,77.029-29.348,106.377,0c29.348,29.347,29.348,77.029,0,106.376L254.028,569.148
		C239.325,583.851,220.99,591.174,202.656,591.174z"/>
	<path fill="#FFFFFF" d="M635.603,587.482c-18.335,0-36.67-7.321-51.373-22.025L151.283,132.51
		c-29.348-29.348-29.348-77.029,0-106.377c29.348-29.347,77.029-29.347,106.377,0l432.947,432.948
		c29.348,29.347,29.348,77.029,0,106.376C675.964,580.16,657.569,587.482,635.603,587.482z"/>
</g>
</svg>
